<svg xmlns="http://www.w3.org/2000/svg" viewBox="0 0 1024 768">
    <path fill-rule="evenodd" d="M0 0h1024v768H0z"/>
    <path d="M505.795 288v62.502l-5.178 5.178-41.969 41.97-24.724 24.724 15.028 15.028 18.044-32.705.097.068a63.516 63.516 0 0 0 1.89 1.283c.2.13.4.26.603.388.196.125.39.25.586.372.39.242.78.48 1.174.714.22.13.44.255.66.382.194.111.387.224.581.334a62.78 62.78 0 0 0 1.247.68 63.712 63.712 0 0 0 1.27.66c.245.124.49.247.736.369l.58.277c.239.114.477.229.717.34a61 61 0 0 0 1.186.533c.238.103.476.203.715.304.204.087.407.173.612.257a64.871 64.871 0 0 0 1.26.5 66.599 66.599 0 0 0 2.141.784 64.027 64.027 0 0 0 3.391 1.065 39.058 39.058 0 0 0 1.35.37l.51.13c.29.073.58.145.87.214l.455.105c.304.07.61.14.915.205l.247.051a64.39 64.39 0 0 0 4.663.804l.167.024a62.792 62.792 0 0 0 1.637.193c.083.006.168.018.251.027a64.06 64.06 0 0 0 5.267.323H503c.486.006.973.013 1.46.006.143 0 .285-.003.429-.005a68.936 68.936 0 0 0 3.066-.11c.141-.007.281-.017.421-.026a62.992 62.992 0 0 0 1.719-.136 64.06 64.06 0 0 0 3.459-.417l.327-.054a64.835 64.835 0 0 0 3.562-.647c.422-.09.845-.185 1.268-.284.12-.028.241-.055.361-.084a64.271 64.271 0 0 0 1.436-.36l.271-.071a64.879 64.879 0 0 0 3.316-.987l.445-.149a62.618 62.618 0 0 0 2.832-1.023 64.324 64.324 0 0 0 1.705-.691l.383-.163a63.054 63.054 0 0 0 3.188-1.472l.288-.148c.425-.213.85-.434 1.272-.657.145-.077.29-.157.436-.235a63.988 63.988 0 0 0 3.161-1.83 50.8 50.8 0 0 0 1.025-.65l.409-.26c.492-.325.982-.651 1.468-.992.003 0 .006-.005.01-.006.488-.339.97-.687 1.45-1.041.129-.095.255-.193.383-.289.34-.254.68-.511 1.014-.774.176-.138.35-.277.524-.416a64.283 64.283 0 0 0 2.243-1.876 73.9 73.9 0 0 0 .553-.486c.298-.268.594-.54.889-.813.137-.128.275-.254.412-.383.442-.418.88-.842 1.312-1.274 12.89-12.891 19.156-29.897 18.799-46.787l21.78-9.443-25.603-11.102a63.777 63.777 0 0 0-3.19-7.341 64.115 64.115 0 0 0-11.786-16.175l-.002.002a64.188 64.188 0 0 0-24.018-15.167 64.115 64.115 0 0 0-19.68-3.635z" style="fill:#fff"/>
    <path d="M458.486 471.62q-.372 3.952-2.917 6.174-2.545 2.206-6.77 2.206-2.95 0-5.207-1.391-2.24-1.408-3.46-3.986-1.222-2.58-1.273-5.988v-2.308q0-3.495 1.239-6.158 1.238-2.663 3.546-4.106 2.322-1.442 5.36-1.442 4.088 0 6.582 2.223 2.494 2.223 2.9 6.276h-4.274q-.306-2.663-1.561-3.833-1.239-1.187-3.647-1.187-2.799 0-4.31 2.053-1.492 2.035-1.526 5.987v2.189q0 4.003 1.425 6.107 1.442 2.104 4.207 2.104 2.528 0 3.8-1.137 1.273-1.137 1.612-3.784zm7.482-8.313q2.018-2.341 5.106-2.341 5.87 0 5.954 6.701v11.994h-4.121v-11.842q0-1.899-.832-2.68-.814-.796-2.41-.796-2.476 0-3.697 2.204v13.114h-4.123v-26.058h4.123zm26.176 16.354q-.271-.526-.475-1.714Q489.7 480 486.85 480q-2.765 0-4.513-1.578-1.747-1.578-1.747-3.901 0-2.935 2.17-4.496 2.19-1.578 6.244-1.578h2.527v-1.204q0-1.425-.797-2.274-.797-.864-2.426-.864-1.407 0-2.307.713-.9.695-.9 1.78h-4.12q0-1.51 1-2.816 1.001-1.323 2.714-2.07 1.731-.746 3.85-.746 3.224 0 5.14 1.629 1.918 1.61 1.97 4.546v8.279q0 2.476.694 3.952v.289zm-4.53-2.97q1.221 0 2.29-.593 1.085-.594 1.628-1.594v-3.461h-2.222q-2.29 0-3.444.797-1.152.798-1.152 2.256 0 1.188.78 1.9.796.696 2.12.696zm11.587-6.378q0-2.697 1.068-4.851 1.07-2.171 3.004-3.325 1.933-1.171 4.444-1.171 3.715 0 6.022 2.392 2.324 2.392 2.51 6.345l.017.967q0 2.714-1.052 4.851-1.034 2.138-2.985 3.308Q510.295 480 507.75 480q-3.884 0-6.225-2.579-2.324-2.595-2.324-6.904zm4.122.357q0 2.832 1.17 4.445 1.17 1.594 3.257 1.594t3.24-1.629q1.172-1.629 1.172-4.767 0-2.781-1.205-4.41-1.188-1.629-3.24-1.629-2.02 0-3.207 1.612-1.187 1.594-1.187 4.784zm20.34-9.365.119 1.917q1.933-2.255 5.292-2.255 3.682 0 5.039 2.815 2.002-2.816 5.632-2.816 3.036 0 4.512 1.68 1.493 1.68 1.527 4.953v12.062h-4.122v-11.943q0-1.748-.763-2.561-.764-.814-2.528-.814-1.408 0-2.307.763-.882.746-1.239 1.967l.018 12.588h-4.123v-12.078q-.085-3.24-3.308-3.24-2.476 0-3.512 2.018v13.3h-4.122v-18.356zm37.356 18.356q-.272-.526-.477-1.714-1.967 2.053-4.816 2.053-2.766 0-4.514-1.578-1.747-1.578-1.747-3.901 0-2.935 2.171-4.496 2.189-1.578 6.243-1.578h2.528v-1.204q0-1.425-.797-2.274-.797-.864-2.426-.864-1.408 0-2.307.713-.9.695-.9 1.78h-4.121q0-1.51 1-2.816 1.002-1.323 2.715-2.07 1.73-.746 3.85-.746 3.223 0 5.14 1.629 1.918 1.61 1.969 4.546v8.279q0 2.476.695 3.952v.289zm-4.53-2.97q1.221 0 2.29-.593 1.086-.594 1.628-1.594v-3.461h-2.222q-2.29 0-3.444.797-1.154.798-1.154 2.256 0 1.188.781 1.9.797.696 2.121.696zm11.586-6.378q0-2.697 1.069-4.851 1.069-2.171 3.002-3.325 1.934-1.171 4.445-1.171 3.715 0 6.022 2.392 2.325 2.392 2.511 6.345l.017.967q0 2.714-1.052 4.851-1.035 2.138-2.986 3.308Q579.17 480 576.625 480q-3.884 0-6.225-2.579-2.325-2.595-2.325-6.904zm4.122.357q0 2.832 1.172 4.445 1.17 1.594 3.256 1.594t3.24-1.629q1.171-1.629 1.171-4.767 0-2.781-1.205-4.41-1.187-1.629-3.24-1.629-2.019 0-3.206 1.612-1.188 1.594-1.188 4.784z" aria-label="Chaomao" font-family="Roboto" font-size="100.953" font-weight="500" letter-spacing="0" word-spacing="0" style="fill:#fff"/>
</svg>
