<svg xmlns="http://www.w3.org/2000/svg" viewBox="0 0 72 72">
    <path fill="#ff4b55" d="M56.25 0h-40.5C7.052 0 0 7.051 0 15.75v40.5C0 64.948 7.051 72 15.75 72h40.5C64.948 72 72 64.948 72 56.25v-40.5C72 7.052 64.948 0 56.25 0z"/>
    <path fill="#ffe15a" d="M36.642 20.62l3.68 11.032 11.628.09c.65.005.92.835.398 1.221l-9.356 6.908L46.5 50.959c.196.62-.51 1.133-1.039.755L36 44.951l-9.461 6.763c-.529.378-1.235-.135-1.039-.755l3.508-11.088-9.355-6.908c-.523-.386-.254-1.216.397-1.22l11.628-.09 3.68-11.033c.205-.617 1.079-.617 1.284 0z"/>
</svg>
