<svg xmlns="http://www.w3.org/2000/svg" viewBox="0 0 24 24">
    <path fill="#4285f4" fill-rule="evenodd" d="M23.758 12.273c0-.849-.076-1.666-.219-2.453H12.238v4.641h6.459a5.52 5.52 0 01-2.395 3.623v3.01h3.877c2.27-2.089 3.579-5.165 3.579-8.82z"/>
    <path fill="#34a853" fill-rule="evenodd" d="M12.243 24c3.24 0 5.956-1.075 7.94-2.907l-3.878-3.013c-1.074.72-2.448 1.147-4.062 1.147-3.126 0-5.77-2.112-6.715-4.947H1.52v3.11A11.996 11.996 0 0012.243 24z"/>
    <path fill="#fbbc05" fill-rule="evenodd" d="M5.528 14.28A7.213 7.213 0 015.152 12c0-.791.136-1.56.376-2.28V6.61H1.52A11.994 11.994 0 00.243 12c0 1.935.464 3.768 1.276 5.388z"/>
    <path fill="#ea4335" fill-rule="evenodd" d="M12.243 4.773c1.761 0 3.344.606 4.586 1.794l3.443-3.44C18.192 1.188 15.477 0 12.242 0A11.996 11.996 0 001.52 6.61l4.01 3.11c.943-2.836 3.588-4.947 6.714-4.947z"/>
</svg>
