<svg xmlns="http://www.w3.org/2000/svg" viewBox="0 0 162 162">
    <rect width="71.002" height="71.002" x="10.023" y="46.118" fill="#fd7c6e" ry="35.5"/>
    <path fill="#4760e9" d="M64.623 10.023a8.637 8.637 0 0 0-6.298 2.1 8.654 8.654 0 0 0-.884 12.229l17.69 20.447a54.071 54.071 0 0 0-5.367-.3 53.533 53.533 0 0 0-25.418 6.317 8.673 8.673 0 0 0-5.777 8.173 8.673 8.673 0 0 0 8.676 8.676 8.673 8.673 0 0 0 4.114-1.038l.043.074a36.335 36.335 0 0 1 46.12 8.138 36.335 36.335 0 0 1 0 46.82 36.324 36.324 0 0 1-45.656 8.381 8.673 8.673 0 0 0-4.982-1.575 8.673 8.673 0 0 0-8.67 8.673 8.673 8.673 0 0 0 4.546 7.624l-.028.055c22.546 13.019 51.336 7.944 68.078-12.006a54.052 54.052 0 0 0 3.839-5.195 8.626 8.626 0 0 0 1.05-1.436l35.08-59.861a8.654 8.654 0 0 0-3.096-11.87 8.654 8.654 0 0 0-11.87 3.101L123.47 78.614V24.516a8.654 8.654 0 0 0-8.676-8.67 8.654 8.654 0 0 0-8.67 8.67v29.586l-35.562-41.1a8.646 8.646 0 0 0-5.94-2.98z"/>
</svg>
