<svg xmlns="http://www.w3.org/2000/svg" viewBox="-35 0 144 144">
    <path fill="#ffd02f" d="M21.182 46.856l-9.36 5.07c-2.428 1.314-5.265-.81-4.802-3.595l1.788-10.736a3.47 3.47 0 00-.951-3.017L.284 26.973C-1.68 25-.596 21.565 2.118 21.158l10.464-1.566a3.313 3.313 0 002.491-1.865l4.681-9.769a3.268 3.268 0 015.935 0l4.68 9.769a3.318 3.318 0 002.49 1.865l10.466 1.566c2.713.407 3.797 3.843 1.833 5.815l-7.572 7.605a3.471 3.471 0 00-.952 3.017l1.787 10.736c.465 2.785-2.372 4.91-4.8 3.594l-9.36-5.07a3.22 3.22 0 00-3.08 0zm0 0"/>
    <path fill="#1cdec9" d="M22.72 137.941a2.883 2.883 0 01-2.882-2.883v-45.09a2.884 2.884 0 115.766 0v45.09a2.883 2.883 0 01-2.883 2.883zm0 0"/>
    <path fill="#ffd02f" d="M93.678 77.59l-6.056 4.525c-1.569 1.175-3.765-.017-3.714-2.014l.196-7.704a2.44 2.44 0 00-.963-2.015l-6.049-4.533c-1.57-1.176-1.149-3.695.712-4.263l7.173-2.188a2.377 2.377 0 001.56-1.567l2.317-7.327c.6-1.902 3.056-2.268 4.155-.62l4.237 6.352a2.324 2.324 0 001.928 1.045l7.481.005c1.942.001 3.039 2.294 1.856 3.88l-4.554 6.114a2.472 2.472 0 00-.37 2.212l2.308 7.333c.597 1.901-1.18 3.684-3.01 3.017l-7.051-2.574a2.284 2.284 0 00-2.156.321zm0 0"/>
    <path fill="#ff8383" d="M38.819 137.941a2.883 2.883 0 01-2.883-2.883c0-22.324 8.906-37.416 16.377-46.147 8.125-9.492 16.232-13.662 16.574-13.836a2.883 2.883 0 012.61 5.143c-.122.062-7.607 3.965-14.966 12.636-9.84 11.593-14.83 25.792-14.83 42.204a2.883 2.883 0 01-2.882 2.883zm0 0"/>
    <path fill="#ffd02f" d="M-23.067 93.22l4.59 6.087c1.19 1.579 3.621 1.065 4.113-.868l1.897-7.456a2.387 2.387 0 011.47-1.656l7.037-2.617c1.826-.678 2.103-3.218.471-4.296l-6.296-4.163a2.436 2.436 0 01-1.076-1.952l-.24-7.704c-.061-1.998-2.321-3.055-3.822-1.789l-5.789 4.882a2.29 2.29 0 01-2.134.451l-7.186-2.145c-1.864-.557-3.538 1.33-2.833 3.192l2.719 7.181c.28.74.188 1.574-.244 2.23l-4.201 6.378c-1.09 1.654.134 3.876 2.072 3.762l7.468-.445a2.314 2.314 0 011.984.928zm0 0"/>
    <path fill="#ffaa00" d="M6.644 137.941a2.883 2.883 0 01-2.883-2.883c0-11.725-2.606-22.452-7.744-31.882a2.883 2.883 0 015.065-2.76c5.603 10.289 8.445 21.944 8.445 34.642a2.883 2.883 0 01-2.883 2.883zm0 0"/>
</svg>
