<svg xmlns="http://www.w3.org/2000/svg" viewBox="0 0 72 72">
    <path fill="#ff4b55" d="M56.25 0h-40.5C7.052 0 0 7.051 0 15.75v40.5C0 64.948 7.051 72 15.75 72h40.5C64.948 72 72 64.948 72 56.25v-40.5C72 7.052 64.948 0 56.25 0z"/>
    <path fill="#ffe15a" d="M16.034 12.26l1.789 5.364 5.655.045c.732.005 1.035.94.446 1.374l-4.548 3.359 1.705 5.392c.221.698-.574 1.275-1.17.85l-4.6-3.289-4.6 3.288c-.596.425-1.39-.151-1.17-.85l1.706-5.391-4.549-3.359c-.59-.435-.285-1.37.446-1.374l5.655-.045 1.79-5.364c.232-.694 1.214-.694 1.445 0zm20.534 1.322l1.282 1.75 2.07-.649a.292.292 0 01.325.45l-1.267 1.76 1.256 1.77a.292.292 0 01-.328.448l-2.066-.662-1.295 1.741a.292.292 0 01-.526-.173l-.01-2.17-2.055-.692a.292.292 0 01.002-.555l2.06-.679.024-2.17a.292.292 0 01.528-.17zm-7.81-5.215l2.156.235.92-1.965a.292.292 0 01.551.064l.443 2.124 2.153.268a.292.292 0 01.11.544l-1.883 1.077.41 2.13a.292.292 0 01-.483.272l-1.607-1.457-1.9 1.048a.292.292 0 01-.407-.375l.89-1.979-1.585-1.482a.292.292 0 01.231-.504zm3.409 21.023l-1.283 1.75-2.07-.648a.292.292 0 00-.325.45l1.267 1.76-1.256 1.77a.292.292 0 00.328.447l2.065-.661 1.295 1.74a.292.292 0 00.527-.172l.009-2.17 2.056-.693a.292.292 0 00-.002-.555l-2.06-.678-.024-2.17a.292.292 0 00-.528-.17zm7.81-4.9l-2.157.235-.92-1.966a.292.292 0 00-.55.065l-.444 2.123-2.152.268a.292.292 0 00-.11.544l1.883 1.077-.41 2.13a.292.292 0 00.483.273l1.607-1.458 1.899 1.049a.292.292 0 00.408-.375l-.89-1.98 1.584-1.482a.292.292 0 00-.23-.504z"/>
</svg>
