<svg xmlns="http://www.w3.org/2000/svg" fill="#000000" viewBox="0 0 24 24">
    <path fill="#ffffff" d="M19.5 8.667v-.835L17 9.5l-2.5-1.667v.834l2.267 1.516a.416.416 0 00.458 0zm.834-4.167H3.666A1.672 1.672 0 002 6.167v11.666c0 .917.75 1.667 1.666 1.667h16.668c.916 0 1.658-.75 1.658-1.667L22 6.167c0-.917-.75-1.667-1.666-1.667zM8.666 7a2.497 2.497 0 012.5 2.5 2.497 2.497 0 01-2.5 2.5 2.497 2.497 0 01-2.5-2.5 2.497 2.497 0 012.5-2.5zm5 10h-10v-.833c0-1.667 3.334-2.583 5-2.583 1.667 0 5 .916 5 2.582zm6.25-5h-5.833a.412.412 0 01-.416-.417V7.416A.412.412 0 0114.083 7h5.835a.412.412 0 01.416.417v4.166a.412.412 0 01-.416.417z"/>
</svg>
