<svg xmlns="http://www.w3.org/2000/svg" viewBox="0 0 24 24">
    <path fill="#fff" d="M14.903 2c-1.003.019-1.893.583-2.385 1.429l-.229-.285a1.49 1.49 0 1 0-.981 2.413l.447-.056-.632 1.898-.312-.39a1.49 1.49 0 1 0-.983 2.411l.649-.08-.66 1.979-.294-.37a1.49 1.49 0 1 0-.983 2.412l.624-.075-.63 1.89-.273-.341a1.49 1.49 0 1 0-.983 2.413l.589-.073-.312.94a1.185 1.185 0 0 0 .139 1.035L9.6 22h5.817c.288-1.756 1.593-3.408 2.454-4.334a1.946 1.946 0 0 0 .44-1.883l-2.218-7.409a.71.71 0 0 1 .327-.821 2.967 2.967 0 0 0 1.508-2.586A2.979 2.979 0 0 0 15 2zm-1.095 2.415a.69.69 0 0 1 .671.691.691.691 0 0 1-1.382 0 .69.69 0 0 1 .711-.69zm-1.382 3.907a.69.69 0 0 1 .672.692.69.69 0 0 1-1.382 0 .69.69 0 0 1 .71-.692zm-1.397 3.924a.69.69 0 0 1 .726.69.691.691 0 0 1-1.38 0 .69.69 0 0 1 .654-.69zM9.862 16.19a.69.69 0 0 1 .67.691h.001a.69.69 0 0 1-1.38 0 .69.69 0 0 1 .709-.691z"/>
</svg>
