<svg xmlns="http://www.w3.org/2000/svg" viewBox="0 0 32 32">
    <path fill="#4285f4" fill-rule="evenodd" d="M30 16.325c0-1.01-.09-1.984-.26-2.92H16.282v5.525h7.69a6.573 6.573 0 0 1-2.851 4.314v3.584h4.616C28.441 24.341 30 20.678 30 16.326z"/>
    <path fill="#34a853" fill-rule="evenodd" d="M16.289 30.289c3.858 0 7.092-1.28 9.454-3.462l-4.618-3.587c-1.278.857-2.914 1.365-4.836 1.365-3.722 0-6.87-2.514-7.996-5.89H3.521v3.703a14.284 14.284 0 0 0 12.768 7.87z"/>
    <path fill="#fbbc05" fill-rule="evenodd" d="M8.293 18.715A8.589 8.589 0 0 1 7.845 16c0-.942.162-1.858.448-2.715V9.582H3.521A14.282 14.282 0 0 0 2 16c0 2.304.552 4.487 1.52 6.416z"/>
    <path fill="#ea4335" fill-rule="evenodd" d="M16.289 7.395c2.097 0 3.982.721 5.46 2.136l4.1-4.096c-2.477-2.31-5.71-3.724-9.561-3.724A14.284 14.284 0 0 0 3.52 9.582l4.774 3.703c1.123-3.377 4.273-5.89 7.995-5.89z"/>
</svg>
