<svg xmlns="http://www.w3.org/2000/svg" viewBox="0 0 32 32">
    <path fill="#2488ff" d="M29.999 15.997a13.999 13.999 0 1 0-16.186 13.828v-9.782h-3.556v-4.046h3.556v-3.086c0-3.507 2.091-5.447 5.287-5.447 1.531 0 3.135.275 3.135.275v3.444h-1.767c-1.738 0-2.28 1.079-2.28 2.187v2.627h3.88l-.618 4.048h-3.263v9.783A14 14 0 0 0 30 15.997z" class="fil0" clip-rule="evenodd" image-rendering="optimizeQuality" shape-rendering="geometricPrecision" text-rendering="geometricPrecision"/>
    <path fill="#daecf7" d="m21.45 20.045.618-4.048h-3.88V13.37c0-1.105.54-2.187 2.28-2.187h1.767V7.74s-1.603-.275-3.134-.275c-3.198 0-5.288 1.939-5.288 5.448v3.085h-3.556v4.048h3.556v9.783a14.055 14.055 0 0 0 4.374 0v-9.783z" class="fil1" clip-rule="evenodd" image-rendering="optimizeQuality" shape-rendering="geometricPrecision" text-rendering="geometricPrecision"/>
</svg>
