<svg xmlns="http://www.w3.org/2000/svg" viewBox="0 0 144 144">
    <path fill="#ff6869" d="M109.503 18.124c-4.17-7.797-9.164-11.749-14.847-11.749-6.54 0-13.334 5.345-20.198 15.893A94.08 94.08 0 0072 26.272a93.12 93.12 0 00-2.461-4.004C62.679 11.72 55.884 6.375 49.343 6.375c-5.682 0-10.68 3.952-14.847 11.75-3.116 5.836-1.993 10.027-.502 12.514 2.687 4.481 8.695 7.502 18.365 9.228 7.426 1.329 15.283 1.525 19.305 1.525h.671c4.023 0 11.88-.196 19.306-1.525 9.668-1.726 15.675-4.747 18.367-9.228 1.486-2.487 2.614-6.678-.505-12.515z"/>
    <path fill="#ffd02f" d="M133.25 62.729a5.835 5.835 0 00-5.837-5.832H16.583a5.833 5.833 0 00-5.833 5.832v69.064a5.833 5.833 0 005.834 5.832h110.83a5.835 5.835 0 005.836-5.832V62.73z"/>
    <path fill="#ffaa00" d="M142 67.63a5.835 5.835 0 01-5.836 5.831H7.834A5.834 5.834 0 012 67.63V38.461a5.837 5.837 0 015.834-5.836h128.33A5.838 5.838 0 01142 38.461V67.63z"/>
    <path fill="#ff8383" d="M57.415 32.624h29.171v40.831H57.415z"/>
    <path fill="#ff6869" d="M57.415 73.455h29.171v64.169H57.415z"/>
</svg>
