<svg xmlns="http://www.w3.org/2000/svg" viewBox="0 0 96 96">
    <path fill="#ffffff" fill-rule="evenodd" d="M50.61 52.965c-1.475.302-2.84 1.11-4.145 2.401-1.31 1.312-2.005 2.807-2.119 4.464-.075 1.044.2 2.25.803 3.554.597 1.324 1.58 2.315 2.889 3.004.446.125.643.378.62.707-.008.117-.18.227-.593.29a9.69 9.69 0 01-5.076-3.796 9.8 9.8 0 01-1.721-6.158c.242-2.432 1.135-4.653 2.674-6.638a11.71 11.71 0 015.787-4.096l-1.056-8.51c-3.858 2.776-7.042 5.719-9.573 8.87a19.206 19.206 0 00-4.32 10.477 14.046 14.046 0 00.72 5.087c.552 1.68 1.449 3.214 2.685 4.651 2.496 2.86 5.885 4.502 10.121 4.933 1.453.007 3.011-.151 4.702-.457zm1.725-.121l2.443 18.453c3.756-1.214 5.802-4.285 6.139-9.156a10.927 10.927 0 00-1.191-4.506 8.51 8.51 0 00-2.94-3.342 8.964 8.964 0 00-4.45-1.45zM49.17 27.899c.817-.417 1.778-1.184 2.825-2.277 1.052-1.067 2.095-2.352 3.102-3.805a24.842 24.842 0 002.526-4.531c.655-1.524 1.02-2.995 1.112-4.369a7.867 7.867 0 00-.05-1.717c-.036-.858-.25-1.539-.669-2.02a2.428 2.428 0 00-1.686-.779c-1.422-.098-2.762.689-4.025 2.36a21.219 21.219 0 00-2.504 5.2 26.302 26.302 0 00-1.323 6.09c-.042 2.352.204 4.294.692 5.848zm-1.589 1.27a49.064 49.064 0 01-.972-11.838 34.31 34.31 0 011.279-7.11 21.408 21.408 0 012.462-5.659c.994-1.596 2.1-2.78 3.298-3.552 1.07-.687 1.834-1.038 2.24-1.008a1.173 1.173 0 01.782.385c.224.227.507.606.851 1.105 2.55 4.198 3.639 9.119 3.252 14.751a29.691 29.691 0 01-1.614 7.806 29.358 29.358 0 01-3.566 7.126 26.707 26.707 0 01-5.28 5.72l1.278 9.455c1.05-.045 1.77-.09 2.174-.06a10.591 10.591 0 014.83 1.475 11.532 11.532 0 013.608 3.335c.954 1.351 1.662 2.875 2.12 4.57.426 1.694.616 3.442.49 5.242-.189 2.792-1.104 5.296-2.73 7.49-1.63 2.193-3.954 3.721-6.994 4.606.113 1.173.33 2.875.678 5.063.325 2.21.56 3.961.71 5.258.148 1.291.16 2.527.076 3.733a9.347 9.347 0 01-1.698 4.903 9.417 9.417 0 01-3.96 3.15c-1.596.697-3.329.984-5.182.855-2.61-.181-4.838-1.07-6.68-2.647-1.845-1.604-2.753-3.639-2.674-6.155a8.472 8.472 0 011.02-3.089c.546-.96 1.242-1.721 2.115-2.282a5.068 5.068 0 012.966-.838c.923.06 1.785.38 2.58.937a5.911 5.911 0 011.823 2.217c.415.908.608 1.898.536 2.938a4.89 4.89 0 01-1.664 3.45c-1.02.908-2.262 1.32-3.706 1.218l-.548-.038c.828 1.487 2.296 2.322 4.406 2.47 1.066.076 2.175-.087 3.295-.439a8.623 8.623 0 002.95-1.604c.832-.703 1.411-1.475 1.682-2.307.47-.945.754-2.28.87-3.96a18.62 18.62 0 00-.098-3.43 96.03 96.03 0 00-.692-4.517c-.325-1.853-.556-3.298-.68-4.28a18.26 18.26 0 01-4.476.237 17.273 17.273 0 01-7.22-2.087 19.225 19.225 0 01-5.764-4.846 21.2 21.2 0 01-3.612-6.717 20.754 20.754 0 01-.953-7.603 21.143 21.143 0 011.876-6.812 29.592 29.592 0 013.725-5.994 51.856 51.856 0 014.566-5.012 313.44 313.44 0 016.224-5.61z"/>
</svg>
