<svg xmlns="http://www.w3.org/2000/svg" viewBox="0 0 144 144">
    <path fill="#ff6869" d="M50.056 141.999c-2.217 0-4.428-.426-6.51-1.29a17.075 17.075 0 01-9.423-9.749l-4.434-11.808a8.262 8.262 0 00-4.836-4.837l-11.815-4.434a17.072 17.072 0 01-9.743-9.416 17.065 17.065 0 01.234-13.559L8.75 75.42a8.273 8.273 0 000-6.838L3.523 57.093a17.09 17.09 0 01-.234-13.558 17.092 17.092 0 019.755-9.417l11.809-4.434a8.272 8.272 0 004.842-4.836l4.434-11.809a17.048 17.048 0 019.416-9.749 17.052 17.052 0 0113.553.234L68.58 8.74a8.273 8.273 0 006.838 0l11.487-5.216c4.271-1.949 9.213-2.025 13.553-.234a17.075 17.075 0 019.423 9.75l4.434 11.808a8.262 8.262 0 004.836 4.836l11.814 4.434a17.072 17.072 0 019.743 9.417 17.065 17.065 0 01-.233 13.558l-5.222 11.488a8.273 8.273 0 000 6.838l5.222 11.487a17.065 17.065 0 01.233 13.559 17.065 17.065 0 01-9.748 9.416l-11.809 4.434a8.272 8.272 0 00-4.842 4.837l-4.434 11.808a17.092 17.092 0 01-9.423 9.75c-4.334 1.802-9.276 1.709-13.552-.234l-11.482-5.222a8.331 8.331 0 00-6.844 0l-11.487 5.222a16.911 16.911 0 01-7.03 1.523z"/>
    <path fill="#ffd02f" d="M100.79 104.689H43.21a6.15 6.15 0 01-6.06-5.121l-6.06-35.54a6.138 6.138 0 012.378-5.961 6.175 6.175 0 016.388-.599l14.44 7.085L66.62 42.257c2.165-3.928 8.602-3.928 10.759 0l12.325 22.296 14.44-7.085a6.175 6.175 0 016.388.599 6.13 6.13 0 012.378 5.961l-6.06 35.544a6.158 6.158 0 01-6.06 5.113z"/>
</svg>
