<svg xmlns="http://www.w3.org/2000/svg" viewBox="0 0 72 72">
    <path fill="#f5f5f5" d="M56.25 0h-40.5C7.052 0 0 7.051 0 15.75v40.5C0 64.948 7.051 72 15.75 72h40.5C64.948 72 72 64.948 72 56.25v-40.5C72 7.052 64.948 0 56.25 0z"/>
    <path fill="#ff4b55" d="M42.892 25.669c-5.704-3.803-13.409-2.248-17.209 3.446-1.907 2.842-1.132 6.704 1.72 8.605a6.2 6.2 0 008.602-1.722c1.9-2.852 5.753-3.615 8.602-1.724 2.854 1.902 3.623 5.764 1.718 8.606 3.803-5.704 2.266-13.409-3.433-17.211"/>
    <path fill="#41479b" d="M25.683 29.115c-1.907 2.842-1.132 6.704 1.72 8.605a6.2 6.2 0 008.602-1.722c1.9-2.852 5.753-3.615 8.602-1.724 2.854 1.902 3.623 5.764 1.718 8.606-3.797 5.714-11.5 7.25-17.203 3.446-5.7-3.803-7.241-11.507-3.439-17.211"/>
    <path fill="#464655" d="M49.208 20.98l2.255 3.389a.621.621 0 01-.172.86l-.572.382a.62.62 0 01-.862-.171L47.6 22.051a.62.62 0 01.172-.86l.575-.384a.621.621 0 01.86.173zm3.479 5.225l2.262 3.388a.621.621 0 01-.174.862l-.574.38a.621.621 0 01-.859-.173l-2.26-3.384a.621.621 0 01.172-.861l.573-.383a.62.62 0 01.86.171zm-1.065-6.836l5.741 8.616a.62.62 0 01-.172.86l-.576.386a.621.621 0 01-.861-.173l-5.744-8.614a.62.62 0 01.172-.861l.58-.386a.62.62 0 01.86.172zm2.408-1.609l2.26 3.396a.621.621 0 01-.175.862l-.575.38a.621.621 0 01-.858-.174l-2.262-3.392a.62.62 0 01.172-.86l.577-.385a.621.621 0 01.861.173zm3.48 5.237l2.258 3.389a.62.62 0 01-.172.86l-.573.383a.62.62 0 01-.862-.173l-2.256-3.389a.62.62 0 01.171-.859l.573-.383a.62.62 0 01.863.172zM18.665 41.341l5.74 8.606a.621.621 0 01-.17.861l-.576.384a.621.621 0 01-.861-.172l-5.742-8.607a.621.621 0 01.172-.861l.575-.384a.621.621 0 01.861.173zm-2.41 1.609l2.254 3.381a.621.621 0 01-.171.86l-.572.383a.621.621 0 01-.861-.171l-2.258-3.38a.621.621 0 01.172-.862l.574-.383a.621.621 0 01.862.173zm3.483 5.227l2.257 3.39a.62.62 0 01-.173.86l-.573.383a.621.621 0 01-.861-.172L18.13 49.25a.621.621 0 01.172-.86l.574-.384a.621.621 0 01.862.172zm-5.893-3.618l5.737 8.608a.62.62 0 01-.172.86l-.573.384a.621.621 0 01-.861-.172l-5.741-8.606a.621.621 0 01.172-.861l.576-.385a.621.621 0 01.862.173zm3.213-14.967l5.74-8.614a.62.62 0 01.861-.172l.575.384a.62.62 0 01.172.86l-5.743 8.609a.621.621 0 01-.858.173l-.573-.378a.621.621 0 01-.174-.863zm-2.411-1.608l5.74-8.616a.621.621 0 01.863-.171l.572.383c.285.19.362.575.173.86l-5.741 8.616a.62.62 0 01-.861.173l-.575-.384a.62.62 0 01-.172-.86zm-2.413-1.6l5.742-8.625a.62.62 0 01.862-.172l.572.383a.622.622 0 01.173.86l-5.738 8.626a.621.621 0 01-.861.172l-.578-.384a.621.621 0 01-.172-.86zM47.6 49.948l2.258-3.38a.621.621 0 01.86-.17l.572.382a.622.622 0 01.172.86l-2.255 3.381a.621.621 0 01-.86.172l-.575-.383a.621.621 0 01-.172-.862zm3.481-5.21l2.26-3.396a.621.621 0 01.862-.173l.575.384a.62.62 0 01.172.861l-2.265 3.392a.621.621 0 01-.86.172l-.57-.378a.621.621 0 01-.174-.862zm-1.071 6.829l2.258-3.39a.621.621 0 01.861-.172l.578.386a.62.62 0 01.171.86l-2.256 3.39a.621.621 0 01-.86.172l-.58-.385a.621.621 0 01-.172-.861zm3.484-5.236l2.26-3.38a.621.621 0 01.86-.173l.576.385a.62.62 0 01.172.861l-2.259 3.381a.621.621 0 01-.86.172l-.578-.385a.621.621 0 01-.171-.861zm-1.073 6.836l2.26-3.382a.62.62 0 01.859-.172l.574.378a.621.621 0 01.175.863l-2.259 3.388a.621.621 0 01-.861.172l-.576-.385a.621.621 0 01-.173-.862zm3.485-5.218l2.255-3.387a.62.62 0 01.862-.172l.572.382a.622.622 0 01.172.861l-2.258 3.382a.621.621 0 01-.858.173l-.571-.378a.62.62 0 01-.174-.861z"/>
</svg>
