<svg xmlns="http://www.w3.org/2000/svg" viewBox="0 0 32 32">
    <path fill="#ffffff" d="M20.064 2c-1.405.026-2.65.816-3.34 2l-.32-.399A2.087 2.087 0 1015.03 6.98l.627-.078-.885 2.657-.437-.546a2.087 2.087 0 10-1.376 3.375l.908-.112-.923 2.77-.413-.518a2.087 2.087 0 10-1.376 3.377l.874-.105-.882 2.646-.382-.477a2.087 2.087 0 10-1.377 3.378l.825-.102-.436 1.316a1.659 1.659 0 00.194 1.449L12.64 30h8.143c.403-2.459 2.231-4.771 3.436-6.067a2.725 2.725 0 00.615-2.637L21.73 10.924a.995.995 0 01.458-1.15 4.154 4.154 0 002.11-3.62A4.17 4.17 0 0020.2 2zM18.53 5.381a.966.966 0 01.94.968.968.968 0 01-1.935 0 .966.966 0 01.996-.967zm-1.934 5.47a.966.966 0 01.94.968.967.967 0 01-1.934 0 .966.966 0 01.995-.968zm-1.956 5.493a.966.966 0 011.017.966.968.968 0 01-1.933 0 .966.966 0 01.916-.966zm-1.634 5.523a.966.966 0 01.938.968h.002a.967.967 0 01-1.933 0 .966.966 0 01.993-.968z"/>
</svg>
