<svg xmlns="http://www.w3.org/2000/svg" viewBox="0 0 72 72">
    <path fill="#41479b" d="M56.25 72h-40.5C7.051 72 0 64.948 0 56.25v-40.5C0 7.051 7.051 0 15.75 0h40.5C64.948 0 72 7.051 72 15.75v40.5C72 64.948 64.948 72 56.25 72z"/>
    <path fill="#f5f5f5" d="M72 56.248v-3.457l-11.168-7.317H72v-3.79H41.684V72h3.79V49.002L69.511 64.75a15.668 15.668 0 001.933-4.344M1.06 61.937a15.712 15.712 0 001.43 2.813l24.038-15.748V72h3.789V41.684H0v3.79h11.168L0 52.791v3.459c0 .605.035 1.203.102 1.79M0 16.285v2.924l11.168 7.317H0v3.79h30.316V0h-3.79v22.998L2.489 7.249a15.662 15.662 0 00-2.05 4.803m70.481-2.044a15.697 15.697 0 00-1.41-2.76l-24.037 15.75V0h-3.788v30.316H72v-3.79H60.832L72 19.209V15.75c0-.627-.038-1.245-.109-1.854"/>
    <path fill="#ff4b55" d="M30.316 41.684V72h11.369V41.684H72V30.315H41.684V0H30.315v30.316H0v11.369z"/>
    <path fill="#ff4b55" d="M19.462 45.474L.102 58.04c.153 1.36.48 2.666.956 3.897l25.364-16.463zm28.978 0l23.005 14.932c.36-1.324.555-2.718.555-4.156v-.002L55.401 45.472zM22.737 26.526L.438 12.051A15.783 15.783 0 000 15.75v.535l15.776 10.241zm29.697 0l19.456-12.63a15.65 15.65 0 00-.97-3.888L45.474 26.526z"/>
</svg>
