<svg xmlns="http://www.w3.org/2000/svg" viewBox="0 0 36 36">
    <path fill="#fff" d="M14.8 24.4c.88 0 1.6-.72 1.6-1.6v-9.6c0-.88-.72-1.6-1.6-1.6-.88 0-1.6.72-1.6 1.6v9.6c0 .88.72 1.6 1.6 1.6zM18 2C9.168 2 2 9.168 2 18s7.168 16 16 16 16-7.168 16-16S26.832 2 18 2zm0 28.8c-7.056 0-12.8-5.744-12.8-12.8 0-7.056 5.744-12.8 12.8-12.8 7.056 0 12.8 5.744 12.8 12.8 0 7.056-5.744 12.8-12.8 12.8zm3.2-6.4c.88 0 1.6-.72 1.6-1.6v-9.6c0-.88-.72-1.6-1.6-1.6-.88 0-1.6.72-1.6 1.6v9.6c0 .88.72 1.6 1.6 1.6z"/>
</svg>
