<svg xmlns="http://www.w3.org/2000/svg" viewBox="0 0 56 56">
    <path fill="#ffffff" d="M50.045 24.045h-6.331a3.955 3.955 0 000 7.91h6.33a3.955 3.955 0 000-7.91zM16.241 28a3.955 3.955 0 00-3.955-3.955h-6.33a3.955 3.955 0 000 7.91h6.33A3.955 3.955 0 0016.241 28zm11.671 11.758a3.955 3.955 0 00-3.955 3.955v6.332a3.955 3.955 0 007.91 0v-6.332a3.955 3.955 0 00-3.955-3.955zm0-37.758a3.955 3.955 0 00-3.955 3.955v6.331a3.955 3.955 0 007.91 0V5.955A3.955 3.955 0 0027.912 2zm13.996 34.314a3.955 3.955 0 00-5.594 5.594l4.477 4.477a3.943 3.943 0 002.797 1.158 3.955 3.955 0 002.797-6.752zM15.209 9.615a3.955 3.955 0 10-5.594 5.593l4.477 4.477a3.942 3.942 0 002.797 1.159 3.955 3.955 0 002.797-6.752zm-1.117 26.699l-4.477 4.478a3.956 3.956 0 005.593 5.593l4.477-4.477a3.956 3.956 0 00-5.593-5.594zm25.018-15.47a3.942 3.942 0 002.797-1.159l4.477-4.477a3.955 3.955 0 10-5.593-5.594l-4.477 4.478a3.955 3.955 0 002.797 6.752z"/>
</svg>
