<svg xmlns="http://www.w3.org/2000/svg" viewBox="0 0 288 288">
    <path fill="#fff" fill-opacity=".966" d="M138.278 75.112v57.638l-4.775 4.775L94.8 176.229l-22.8 22.8 13.858 13.859 16.64-30.16.09.063a58.573 58.573 0 0 0 1.742 1.183c.185.12.37.24.557.358.18.115.359.23.54.343.36.223.72.442 1.083.658.202.12.406.235.608.352.179.103.357.207.536.308a57.895 57.895 0 0 0 1.15.628 58.754 58.754 0 0 0 1.172.608c.225.114.451.228.678.34l.535.256c.22.105.44.211.661.313.363.168.728.332 1.094.492.219.095.439.187.659.28.188.08.375.16.564.237a59.823 59.823 0 0 0 1.162.461 61.416 61.416 0 0 0 1.975.723 59.045 59.045 0 0 0 3.127.982 36.019 36.019 0 0 0 1.245.341l.47.121c.268.067.535.133.803.197l.419.097c.28.065.562.129.844.189l.228.047a59.379 59.379 0 0 0 4.3.741l.154.022a57.906 57.906 0 0 0 1.509.178c.077.006.155.017.232.025a59.075 59.075 0 0 0 4.857.298h.208c.449.006.898.012 1.347.006.132 0 .263-.003.395-.005a63.572 63.572 0 0 0 2.828-.102c.13-.006.259-.015.388-.023a58.09 58.09 0 0 0 1.585-.126 59.075 59.075 0 0 0 3.19-.384l.302-.05a59.79 59.79 0 0 0 3.284-.597c.39-.083.78-.17 1.17-.262.11-.026.222-.05.333-.077a59.27 59.27 0 0 0 1.324-.333l.25-.065a59.83 59.83 0 0 0 3.058-.91l.41-.137a57.745 57.745 0 0 0 2.612-.944 59.318 59.318 0 0 0 1.572-.637l.353-.15c.99-.424 1.97-.877 2.94-1.358l.266-.136c.392-.197.784-.4 1.173-.606.134-.071.268-.145.402-.217a59.009 59.009 0 0 0 2.915-1.688c.317-.195.632-.395.945-.598l.377-.241c.454-.299.906-.6 1.354-.914.003 0 .006-.005.01-.006.449-.312.894-.633 1.337-.96.118-.087.235-.178.353-.266.313-.235.626-.472.935-.714.162-.127.323-.256.483-.384a59.281 59.281 0 0 0 2.068-1.73c.17-.148.34-.297.51-.448.275-.247.548-.498.82-.75.127-.118.254-.234.38-.353.408-.385.811-.776 1.21-1.175 11.887-11.888 17.665-27.57 17.336-43.146L216 124.375l-23.61-10.238a58.814 58.814 0 0 0-2.942-6.77 59.126 59.126 0 0 0-10.869-14.916l-.002.002a59.193 59.193 0 0 0-22.149-13.987 59.126 59.126 0 0 0-18.148-3.352z"/>
    <path fill="#fff" d="M94.65 244.443q-.343 3.645-2.69 5.694-2.347 2.034-6.242 2.034-2.722 0-4.803-1.283-2.065-1.298-3.191-3.676t-1.173-5.522v-2.128q0-3.223 1.142-5.679 1.142-2.456 3.27-3.786 2.142-1.33 4.943-1.33 3.77 0 6.07 2.05 2.3 2.05 2.675 5.788h-3.942q-.282-2.456-1.44-3.535-1.142-1.095-3.363-1.095-2.581 0-3.974 1.893-1.376 1.877-1.408 5.522v2.018q0 3.692 1.314 5.632 1.33 1.94 3.88 1.94 2.331 0 3.504-1.048 1.174-1.049 1.487-3.49zm6.9-7.666q1.861-2.159 4.709-2.159 5.413 0 5.49 6.18v11.06h-3.8v-10.92q0-1.751-.767-2.471-.751-.735-2.222-.735-2.284 0-3.41 2.033v12.093h-3.802v-24.03h3.802zm24.139 15.081q-.25-.485-.438-1.58-1.815 1.893-4.443 1.893-2.55 0-4.162-1.455-1.611-1.455-1.611-3.598 0-2.706 2.002-4.146 2.019-1.455 5.757-1.455h2.331v-1.11q0-1.314-.735-2.097-.735-.797-2.237-.797-1.298 0-2.128.657-.829.641-.829 1.642h-3.801q0-1.392.923-2.597.923-1.22 2.503-1.908 1.596-.689 3.551-.689 2.972 0 4.74 1.502 1.768 1.486 1.815 4.193v7.634q0 2.284.641 3.645v.266zm-4.177-2.738q1.126 0 2.112-.547 1-.548 1.501-1.47v-3.192h-2.049q-2.112 0-3.176.735-1.063.736-1.063 2.08 0 1.096.72 1.753.734.641 1.955.641zm10.685-5.882q0-2.487.985-4.474.986-2.002 2.77-3.066 1.783-1.08 4.098-1.08 3.426 0 5.554 2.206 2.143 2.206 2.315 5.851l.015.892q0 2.503-.97 4.474-.954 1.971-2.753 3.05-1.783 1.08-4.13 1.08-3.582 0-5.741-2.378-2.143-2.393-2.143-6.367zm3.801.329q0 2.612 1.08 4.099 1.079 1.47 3.003 1.47 1.924 0 2.988-1.502 1.08-1.502 1.08-4.396 0-2.565-1.111-4.067-1.095-1.502-2.988-1.502-1.862 0-2.957 1.486-1.095 1.47-1.095 4.412zm18.757-8.636.11 1.768q1.783-2.08 4.88-2.08 3.396 0 4.647 2.596 1.846-2.597 5.194-2.597 2.8 0 4.161 1.55 1.377 1.548 1.408 4.567v11.123h-3.801v-11.013q0-1.612-.704-2.362-.704-.751-2.331-.751-1.299 0-2.128.704-.813.688-1.142 1.814l.016 11.608h-3.802V240.72q-.078-2.988-3.05-2.988-2.284 0-3.239 1.861v12.265h-3.801v-16.927zm34.449 16.927q-.25-.485-.439-1.58-1.814 1.893-4.442 1.893-2.55 0-4.162-1.455-1.611-1.455-1.611-3.598 0-2.706 2.002-4.146 2.018-1.455 5.757-1.455h2.331v-1.11q0-1.314-.735-2.097-.735-.797-2.237-.797-1.299 0-2.128.657-.829.641-.829 1.642h-3.801q0-1.392.923-2.597.923-1.22 2.503-1.908 1.595-.689 3.551-.689 2.972 0 4.74 1.502 1.768 1.486 1.815 4.193v7.634q0 2.284.641 3.645v.266zm-4.177-2.738q1.126 0 2.111-.547 1.002-.548 1.502-1.47v-3.192h-2.049q-2.112 0-3.176.735-1.064.736-1.064 2.08 0 1.096.72 1.753.735.641 1.956.641zm10.684-5.882q0-2.487.986-4.474.986-2.002 2.769-3.066 1.783-1.08 4.099-1.08 3.426 0 5.553 2.206 2.144 2.206 2.316 5.851l.015.892q0 2.503-.97 4.474-.954 1.971-2.753 3.05-1.783 1.08-4.13 1.08-3.582 0-5.741-2.378-2.144-2.393-2.144-6.367zm3.802.329q0 2.612 1.08 4.099 1.079 1.47 3.003 1.47 1.924 0 2.988-1.502 1.08-1.502 1.08-4.396 0-2.565-1.111-4.067-1.095-1.502-2.988-1.502-1.862 0-2.957 1.486-1.095 1.47-1.095 4.412z" aria-label="Chaomao" font-family="Roboto" font-size="100.953" font-weight="500" letter-spacing="0" word-spacing="0"/>
</svg>
