<svg xmlns="http://www.w3.org/2000/svg" viewBox="0 0 480 480">
    <g fill="#fff">
        <path d="M207.545 218.367c-29.824 0-54.09 24.267-54.09 54.09 0 29.824 24.266 54.091 54.09 54.091 29.823 0 54.09-24.267 54.09-54.09 0-29.824-24.266-54.09-54.09-54.09zm0 86.545c-17.897 0-32.455-14.558-32.455-32.454 0-17.897 14.558-32.455 32.455-32.455 17.896 0 32.454 14.558 32.454 32.455 0 17.896-14.558 32.454-32.454 32.454z"/>
        <path d="M474.83 37.628L442.376 5.173A10.778 10.778 0 00429.36 3.43l-75.727 43.273a10.82 10.82 0 00-5.452 9.391v17.158l-72.484 72.484c-15.995-9.107-31.926-13.893-46.516-13.914-50.943 0-63.536 31.314-72.727 54.176-8.547 21.267-14.009 32.359-35.454 32.37-75.622 0-119 39.427-119 108.182 0 72.188 79.266 151.454 151.454 151.454 68.755 0 108.182-43.378 108.182-119 0-21.446 11.094-26.907 32.35-35.454 22.862-9.192 54.175-21.784 54.175-72.726 0-14.57-4.775-30.51-13.892-46.517l72.484-72.484h17.157c3.877 0 7.47-2.081 9.391-5.451l43.274-75.728a10.813 10.813 0 00-1.745-13.016zm-57.197 72.557h-15.361c-2.873 0-5.62 1.141-7.65 3.17l-81.674 81.674a10.824 10.824 0 00-1.405 13.575c9.805 14.97 14.981 29.57 14.981 42.217 0 36.321-17.918 43.526-40.61 52.654-20.454 8.23-45.915 18.467-45.915 55.528 0 44.414-15.012 97.363-86.545 97.363-59.447 0-129.818-70.37-129.818-129.818 0-71.522 52.95-86.556 97.364-86.566 37.06 0 47.297-25.46 55.527-45.914 9.118-22.672 16.323-40.59 52.622-40.59h.032c12.646 0 27.246 5.177 42.216 14.981 4.3 2.78 9.952 2.23 13.575-1.405l81.675-81.674a10.81 10.81 0 003.17-7.65V62.37l63.102-36.057 20.77 20.77z"/>
        <path d="M107.012 329.719c-4.226-4.227-11.072-4.227-15.298 0-4.226 4.226-4.226 11.072 0 15.297l43.274 43.273a10.785 10.785 0 007.649 3.17c2.767 0 5.535-1.057 7.649-3.17 4.226-4.226 4.226-11.072 0-15.297z"/>
    </g>
</svg>
