<svg xmlns="http://www.w3.org/2000/svg" viewBox="0 0 480 480">
    <g fill="#fff" fill-opacity=".995" transform="matrix(1.0142 0 0 1.01419 1.996 2)">
        <path d="M466.212 35.133l-32-32c-3.406-3.417-8.677-4.115-12.833-1.719l-74.667 42.667a10.67 10.67 0 00-5.375 9.26v16.917l-69.75 69.75c-1.135-1.667-2.271-3.51-3.458-5.469-7.177-11.76-17.01-27.865-44.125-27.865-50.792 0-63.031 38.042-71.969 65.813-8.635 26.844-14.094 40.844-34.698 40.854-56.719 0-117.229 6.594-117.333 85.323-.052 39.094 19.854 81.448 54.604 116.198 34.635 34.635 76.802 54.479 115.75 54.479h.135c78.906-.104 85.51-60.615 85.51-117.333 0-26.021 9.635-32 51.542-32 45.063 0 76.458-33.729 76.458-64 0-6.771-2.125-12.219-6.323-16.177-8.094-7.625-20.135-6.938-36.802-5.938-6.229.365-13.24.781-20.875.781-7.365 0-13.969-3.76-17.802-9.781l96.885-96.885h16.917c3.823 0 7.365-2.052 9.26-5.375l42.667-74.667a10.657 10.657 0 00-1.718-12.833zm-56.396 71.541H394.67a10.66 10.66 0 00-7.542 3.125L281.962 214.966a10.67 10.67 0 00-2.677 10.615c5.469 18.198 21.833 30.427 40.719 30.427 8.094 0 15.521-.427 22.125-.823 7.885-.448 18.667-1.063 20.542.823 0 17.396-21.479 42.667-55.125 42.667-36.875 0-72.875 4.115-72.875 53.333 0 73.51-15 95.938-64.198 96h-.115c-32.833 0-70.458-18.021-100.656-48.229-30.323-30.323-48.406-68.115-48.365-101.094.073-54.427 31.01-64.01 96-64.031 37.115 0 47.031-30.844 55.01-55.635 8.802-27.375 16.406-51.01 51.656-51.01 15.146 0 19.427 7.021 25.917 17.646 3.896 6.385 8.312 13.615 15.719 18.469 4.24 2.75 9.802 2.208 13.385-1.385l80.521-80.521c2-2 3.125-4.708 3.125-7.542V59.529l62.219-35.552 20.479 20.479z"/>
        <path d="M195.129 295.549a10.634 10.634 0 007.542 3.125c2.729 0 5.458-1.042 7.542-3.125 4.167-4.167 4.167-10.917 0-15.083l-21.333-21.333c-4.167-4.167-10.917-4.167-15.083 0-4.167 4.167-4.167 10.917 0 15.083zm-21.334 21.334a10.634 10.634 0 007.542 3.125c2.729 0 5.458-1.042 7.542-3.125 4.167-4.167 4.167-10.917 0-15.083l-21.333-21.333c-4.167-4.167-10.917-4.167-15.083 0-4.167 4.167-4.167 10.917 0 15.083z"/>
        <circle cx="160.004" cy="373.337" r="10.667"/>
        <circle cx="202.671" cy="373.337" r="10.667"/>
        <circle cx="138.671" cy="416.004" r="10.667"/>
        <circle cx="181.337" cy="416.004" r="10.667"/>
    </g>
</svg>
