<svg xmlns="http://www.w3.org/2000/svg" viewBox="0 0 480 480">
    <path fill="#fff" d="M474.832 113.352l-86.546-86.545c-4.226-4.226-11.072-4.226-15.297 0a10.785 10.785 0 00-3.17 7.65c0 2.767 1.057 5.535 3.17 7.648l13.988 13.988L66.91 376.156l-3.169-3.169c-4.226-4.226-11.072-4.226-15.297 0-4.226 4.226-4.226 11.072 0 15.297l3.17 3.17-46.443 46.442a10.807 10.807 0 00-2.346 11.79 10.806 10.806 0 009.994 6.676h86.545c2.873 0 5.62-1.14 7.649-3.169l3.17-3.17 3.169 3.17a10.785 10.785 0 007.649 3.17c2.767 0 5.535-1.057 7.649-3.17 4.226-4.226 4.226-11.072 0-15.297l-3.17-3.17 320.065-320.064 13.987 13.988c4.227 4.226 11.072 4.226 15.298 0a10.785 10.785 0 003.169-7.649 10.778 10.778 0 00-3.168-7.65zM38.937 434.726l27.974-27.974 27.975 27.974zm71.247-15.297L82.21 391.455l72-72c1.528 4.121 5.412 7.09 10.065 7.09 5.974 0 10.818-4.843 10.818-10.818 0-4.654-2.97-8.538-7.091-10.065l29.48-29.48c1.528 4.121 5.413 7.091 10.065 7.091 5.975 0 10.819-4.844 10.819-10.818 0-4.655-2.97-8.539-7.091-10.065l29.48-29.481c1.529 4.122 5.413 7.091 10.065 7.091 5.975 0 10.819-4.844 10.819-10.818 0-4.655-2.97-8.539-7.092-10.065l29.481-29.481c1.529 4.122 5.413 7.091 10.065 7.091 5.975 0 10.819-4.844 10.819-10.818 0-4.654-2.97-8.539-7.092-10.065l29.481-29.48c1.528 4.12 5.413 7.09 10.065 7.09 5.975 0 10.818-4.843 10.818-10.818 0-4.654-2.97-8.539-7.09-10.065l61.182-61.183 27.974 27.975z"/>
</svg>
