<svg viewBox="0 0 480 480" xmlns="http://www.w3.org/2000/svg">
    <path d="M467.181 283.272H419.79C454.83 260.002 478 220.22 478 175.09c0-71.586-58.233-129.818-129.818-129.818H303.05c-16.84 0-32.665-6.56-44.582-18.467C242.45 10.81 221.195 2 198.586 2H77.728a10.844 10.844 0 00-9.298 5.272 10.85 10.85 0 00-.232 10.67l63.62 118.152v147.178H56.09a10.812 10.812 0 00-10.818 10.818c0 17.897-14.558 32.455-32.455 32.455A10.812 10.812 0 002 337.363v10.819c0 23.865 19.418 43.272 43.273 43.272h1.269l9.634 77.07A10.825 10.825 0 0066.909 478a10.823 10.823 0 0010.733-9.477l9.634-77.069h197.266l9.634 77.07A10.825 10.825 0 00304.909 478a10.823 10.823 0 0010.733-9.477l9.634-77.069h67.448l9.634 77.07A10.825 10.825 0 00413.09 478a10.823 10.823 0 0010.733-9.477l9.634-77.069h1.269c23.855 0 43.273-19.407 43.273-43.273v-54.09a10.813 10.813 0 00-10.819-10.819zM95.835 23.636h102.752c16.84 0 32.665 6.56 44.582 18.467 16.016 15.995 37.272 24.806 59.88 24.806h45.132c59.648 0 108.182 48.534 108.182 108.182s-48.534 108.182-108.182 108.182H235.647l-82.193-152.635V56.09c0-5.98-4.839-10.818-10.819-10.818a10.811 10.811 0 00-10.817 10.818v34.367zM211.07 283.272h-57.614V176.276zm245.294 64.909c0 11.927-9.699 21.636-21.636 21.636H45.273c-11.938 0-21.636-9.709-21.636-21.636v-1.088c21.171-4.31 37.863-21.024 42.195-42.185h390.531z"
        fill="#fff" />
</svg>
