<svg xmlns="http://www.w3.org/2000/svg" viewBox="0 0 512 512">
    <rect width="512" height="512" fill="#fff" ry="117.333"/>
    <rect width="192" height="192" x="64.064" y="161.675" fill="#fd7c6e" ry="96"/>
    <path fill="#4760e9" d="M211.712 64.064a23.36 23.36 0 0 0-17.035 5.675 23.403 23.403 0 0 0-2.389 33.077l47.84 55.285a146.219 146.219 0 0 0-14.507-.81 144.768 144.768 0 0 0-68.746 17.088 23.456 23.456 0 0 0-15.616 22.101 23.456 23.456 0 0 0 23.466 23.456 23.456 23.456 0 0 0 11.115-2.805l.117.202a98.261 98.261 0 0 1 124.715 22.006 98.25 98.25 0 0 1 0 126.613 98.23 98.23 0 0 1-123.456 22.656 23.456 23.456 0 0 0-13.472-4.256 23.456 23.456 0 0 0-23.445 23.456 23.456 23.456 0 0 0 12.288 20.619l-.075.149c60.97 35.2 138.827 21.483 184.107-32.47 3.776-4.511 7.21-9.215 10.368-14.047a22.193 22.193 0 0 0 2.848-3.883l94.858-161.877a23.403 23.403 0 0 0-8.373-32.096 23.403 23.403 0 0 0-32.096 8.384l-33.387 56.96V103.253a23.403 23.403 0 0 0-23.456-23.445 23.403 23.403 0 0 0-23.434 23.445v80.011L227.776 72.117a23.381 23.381 0 0 0-16.053-8.053z"/>
</svg>
