<svg xmlns="http://www.w3.org/2000/svg" viewBox="0 0 48 48">
    <path fill="#ffffff" d="M0 0h48v48H0z"/>
    <rect width="18" height="18" x="6.006" y="15.157" fill="#fd7c6e" ry="9"/>
    <path fill="#4760e9" d="M19.848 6.006a2.19 2.19 0 00-1.597.532 2.194 2.194 0 00-.224 3.101l4.485 5.183a13.708 13.708 0 00-1.36-.076 13.572 13.572 0 00-6.445 1.602 2.199 2.199 0 00-1.464 2.072 2.199 2.199 0 002.2 2.199 2.199 2.199 0 001.042-.263l.011.019a9.212 9.212 0 0111.692 2.063 9.211 9.211 0 010 11.87 9.209 9.209 0 01-11.574 2.124 2.199 2.199 0 00-1.263-.399 2.199 2.199 0 00-2.198 2.199 2.199 2.199 0 001.152 1.933l-.007.014c5.716 3.3 13.015 2.014 17.26-3.044.354-.423.676-.864.972-1.317.1-.11.19-.23.267-.364l8.893-15.176a2.194 2.194 0 00-.785-3.009 2.194 2.194 0 00-3.009.786l-3.13 5.34V9.68a2.194 2.194 0 00-2.199-2.198A2.194 2.194 0 0030.37 9.68v7.501l-9.016-10.42a2.192 2.192 0 00-1.505-.755z"/>
</svg>
