<svg viewBox="0 0 48 48" xmlns="http://www.w3.org/2000/svg">
    <rect fill="#fff" height="21" ry="10.5" width="21" x="3.007" y="13.683" />
    <path d="M19.156 3.007a2.555 2.555 0 00-1.863.62 2.56 2.56 0 00-.261 3.618l5.232 6.047a15.993 15.993 0 00-1.587-.088 15.834 15.834 0 00-7.519 1.869 2.566 2.566 0 00-1.708 2.417 2.566 2.566 0 002.566 2.565 2.566 2.566 0 001.217-.306l.013.022a10.747 10.747 0 0113.64 2.407 10.746 10.746 0 010 13.848 10.744 10.744 0 01-13.503 2.478 2.566 2.566 0 00-1.473-.465 2.566 2.566 0 00-2.565 2.565 2.566 2.566 0 001.344 2.255l-.008.017c6.669 3.85 15.185 2.35 20.136-3.552a15.95 15.95 0 001.135-1.536 2.63 2.63 0 00.312-.425l10.375-17.705a2.56 2.56 0 00-.916-3.51 2.56 2.56 0 00-3.51.916l-3.652 6.23v-16a2.56 2.56 0 00-2.566-2.565 2.56 2.56 0 00-2.564 2.564v8.751L20.912 3.888a2.557 2.557 0 00-1.756-.881z"
        fill="#fff" />
</svg>
